<svg width="146" height="42" viewBox="0 0 146 42" fill="none" xmlns="http://www.w3.org/2000/svg">
<path d="M17.784 37.576C15.256 37.576 12.904 37.144 10.728 36.28C8.584 35.416 6.712 34.216 5.112 32.68C3.544 31.112 2.312 29.288 1.416 27.208C0.552 25.096 0.12 22.792 0.12 20.296C0.12 17.512 0.616 14.936 1.608 12.568C2.632 10.2 4.04 8.12 5.832 6.328C7.624 4.536 9.72 3.144 12.12 2.152C14.52 1.16 17.112 0.663999 19.896 0.663999C22.456 0.663999 24.808 1.096 26.952 1.96C29.128 2.792 31 3.992 32.568 5.56C34.168 7.096 35.4 8.92 36.264 11.032C37.16 13.112 37.608 15.384 37.608 17.848C37.608 20.632 37.096 23.224 36.072 25.624C35.048 27.992 33.624 30.072 31.8 31.864C30.008 33.656 27.912 35.064 25.512 36.088C23.112 37.08 20.536 37.576 17.784 37.576ZM17.784 31.624C19.64 31.624 21.368 31.288 22.968 30.616C24.568 29.912 25.976 28.936 27.192 27.688C28.408 26.44 29.352 24.984 30.024 23.32C30.696 21.656 31.032 19.864 31.032 17.944C31.032 15.704 30.552 13.736 29.592 12.04C28.664 10.344 27.352 9.016 25.656 8.056C23.992 7.096 22.072 6.616 19.896 6.616C18.04 6.616 16.312 6.968 14.712 7.672C13.112 8.344 11.704 9.304 10.488 10.552C9.272 11.768 8.328 13.208 7.656 14.872C6.984 16.504 6.648 18.296 6.648 20.248C6.648 22.456 7.128 24.424 8.088 26.152C9.048 27.848 10.36 29.192 12.024 30.184C13.688 31.144 15.608 31.624 17.784 31.624ZM24.264 41.32L15.72 22.696H22.2L30.84 41.32H24.264ZM40.9601 37L45.9521 1.24H52.1921L63.0401 19.96L59.1041 19.72L75.5201 1.24H81.9521L76.9601 37H70.4321L74.3201 8.872L76.2881 9.544L60.6401 27.4H59.8721L48.8321 8.056L51.4241 8.872L47.4881 37H40.9601ZM83.8039 37L88.7959 1.24H112.604L111.788 7H94.5079L93.2599 16.168H109.532L108.764 21.928H92.4439L91.1479 31.24H108.38L107.612 37H83.8039ZM112.351 37L117.343 1.24H128.383C131.807 1.24 134.783 1.928 137.311 3.304C139.839 4.68 141.807 6.584 143.215 9.016C144.623 11.416 145.327 14.184 145.327 17.32C145.327 20.168 144.863 22.792 143.935 25.192C143.007 27.592 141.647 29.672 139.855 31.432C138.095 33.192 135.999 34.568 133.567 35.56C131.135 36.52 128.399 37 125.359 37H112.351ZM119.695 31.24H125.407C127.391 31.24 129.183 30.92 130.783 30.28C132.415 29.608 133.823 28.664 135.007 27.448C136.191 26.2 137.103 24.744 137.743 23.08C138.383 21.384 138.703 19.528 138.703 17.512C138.703 15.336 138.271 13.464 137.407 11.896C136.543 10.328 135.311 9.128 133.711 8.296C132.111 7.432 130.191 7 127.951 7H123.055L119.695 31.24Z" fill="#18173C"/>
</svg>
